<svg xmlns="http://www.w3.org/2000/svg" xmlns:xlink="http://www.w3.org/1999/xlink" width="500" zoomAndPan="magnify" viewBox="0 0 375 74.999997" height="100" preserveAspectRatio="xMidYMid meet" version="1.0"><defs><g/></defs><path stroke-linecap="butt" transform="matrix(0.716896, 0, 0, 0.716896, 46.925545, 15.993125)" fill="none" stroke-linejoin="miter" d="M 36.981607 6.635379 C 41.367924 6.635379 44.751653 7.588926 47.127348 9.501469 C 49.51394 11.397666 50.701787 13.920479 50.701787 17.064459 C 50.701787 18.312244 50.516526 19.614517 50.140556 20.976727 C 48.979953 25.123294 46.69144 28.190991 43.275018 30.185267 C 39.869493 32.163196 35.548562 33.154884 30.323125 33.154884 L 23.942533 33.154884 L 21.817485 40.674284 C 21.735753 40.919482 21.697611 41.246412 21.697611 41.660524 C 21.697611 42.248999 21.828383 42.728497 22.089927 43.104467 C 22.362369 43.46409 22.771032 43.894548 23.321365 44.390393 C 23.773619 44.804505 24.084203 45.120537 24.242219 45.333042 C 24.405684 45.534649 24.487417 45.779847 24.487417 46.074084 C 24.487417 46.782434 24.155038 47.283727 23.48483 47.577964 C 22.830969 47.855855 21.855627 47.997525 20.57515 47.997525 L 4.986018 47.997525 C 3.912596 47.997525 3.111617 47.801367 2.577631 47.40905 C 2.027298 47.016734 1.842037 46.466401 2.0164 45.768949 C 2.092684 45.398428 2.2507 45.098742 2.485 44.87534 C 2.708403 44.646488 3.046231 44.379495 3.498485 44.085258 C 4.206834 43.671146 4.768064 43.240688 5.182176 42.782985 C 5.596288 42.330731 5.928667 41.627831 6.168416 40.674284 L 13.753202 13.898683 C 13.911218 13.359248 13.992951 12.847057 13.992951 12.351213 C 13.992951 11.89351 13.922116 11.512091 13.780446 11.196059 C 13.638776 10.885475 13.442618 10.520402 13.191971 10.106291 C 12.816001 9.572304 12.630741 9.136397 12.630741 8.804018 C 12.630741 8.678694 12.668883 8.455292 12.750615 8.117464 C 12.919529 7.583478 13.284601 7.207508 13.840383 6.984105 C 14.396165 6.749805 15.257082 6.635379 16.417685 6.635379 Z M 35.357853 19.870612 C 35.815556 18.334039 36.038958 16.982727 36.038958 15.822124 C 36.038958 13.424634 34.921946 12.231338 32.687921 12.231338 L 29.898115 12.231338 L 25.484555 27.558926 L 28.214424 27.558926 C 29.958052 27.558926 31.369302 27.014042 32.464519 25.924274 C 33.565185 24.818159 34.529629 22.802088 35.357853 19.870612 Z M 63.495664 15.141019 C 65.898602 15.141019 67.658577 15.593273 68.770141 16.503229 C 69.892602 17.413185 70.453832 18.66097 70.453832 20.235684 C 70.453832 21.183783 70.306714 22.093739 70.012476 22.965553 L 64.296643 41.540649 C 64.176769 42.036494 64.116831 42.472401 64.116831 42.842922 C 64.116831 43.382357 64.21491 43.807367 64.416518 44.117951 C 64.629022 44.433984 64.92326 44.728221 65.29923 45.011561 C 65.582569 45.305798 65.784176 45.550996 65.904051 45.741705 C 66.034823 45.921517 66.062067 46.161266 65.980335 46.455503 C 65.76783 46.98949 65.348269 47.381806 64.721653 47.637902 C 64.105934 47.877651 63.157835 47.997525 61.871909 47.997525 L 47.72672 47.997525 C 46.642401 47.997525 45.852319 47.823162 45.356475 47.468988 C 44.86063 47.114813 44.697165 46.651662 44.86063 46.074084 C 45.029544 45.57824 45.465451 45.142333 46.162903 44.771812 C 46.78952 44.433984 47.307159 44.041667 47.72672 43.589413 C 48.140832 43.131711 48.489558 42.407015 48.772897 41.420775 L 54.183596 23.466847 C 54.30347 23.090877 54.363407 22.780293 54.363407 22.540544 C 54.363407 22.082841 54.259879 21.723218 54.047375 21.450776 C 53.845768 21.178334 53.535184 20.894994 53.121072 20.617103 C 52.70696 20.279275 52.412723 19.990487 52.243809 19.750738 C 52.080343 19.500091 52.058548 19.162263 52.183871 18.748151 C 52.434518 17.800053 53.736791 16.960932 56.096139 16.230787 C 58.460935 15.506091 60.923811 15.141019 63.495664 15.141019 Z M 67.664026 1.415391 C 69.271434 1.415391 70.611849 1.949377 71.679821 3.011901 C 72.764141 4.063527 73.303576 5.349453 73.303576 6.875128 C 73.303576 7.959448 73.025685 9.021971 72.469903 10.0627 C 71.914122 11.092531 71.12404 11.931652 70.105107 12.580064 C 69.097071 13.212129 67.969161 13.533611 66.721377 13.533611 C 65.15756 13.533611 63.844389 13.005074 62.781865 11.958896 C 61.730239 10.896372 61.185355 9.577753 61.141765 7.997589 C 61.141765 6.967759 61.414207 5.948826 61.948193 4.935341 C 62.482179 3.916408 63.245017 3.077287 64.236706 2.417977 C 65.239292 1.753219 66.3781 1.415391 67.664026 1.415391 Z M 89.715482 2.101944 C 92.107523 2.101944 93.872947 2.554198 95.006306 3.464154 C 96.150563 4.374111 96.717242 5.616446 96.717242 7.19661 C 96.717242 8.106566 96.575572 8.994727 96.292232 9.861093 L 86.544257 41.540649 C 86.413485 42.036494 86.348099 42.472401 86.348099 42.842922 C 86.348099 43.382357 86.446178 43.807367 86.653234 44.117951 C 86.865739 44.433984 87.154527 44.728221 87.530497 45.011561 C 87.824735 45.305798 88.031791 45.550996 88.151665 45.741705 C 88.282437 45.921517 88.304233 46.161266 88.211602 46.455503 C 88.009995 46.98949 87.595884 47.381806 86.969267 47.637902 C 86.353548 47.877651 85.400001 47.997525 84.119524 47.997525 L 69.957988 47.997525 C 68.884566 47.997525 68.099933 47.823162 67.604089 47.468988 C 67.097347 47.114813 66.933882 46.651662 67.102796 46.074084 C 67.266261 45.57824 67.702168 45.142333 68.410517 44.771812 C 69.026236 44.433984 69.543876 44.041667 69.957988 43.589413 C 70.3721 43.131711 70.726274 42.407015 71.015063 41.420775 L 80.447005 10.422323 C 80.577777 10.051802 80.648612 9.735769 80.648612 9.485123 C 80.648612 9.02742 80.528738 8.662348 80.299887 8.379008 C 80.076484 8.084771 79.776798 7.790534 79.400828 7.496296 C 78.986716 7.174815 78.68703 6.886026 78.490872 6.635379 C 78.31106 6.379284 78.278367 6.052354 78.40369 5.649139 C 78.654337 4.690143 79.95661 3.856471 82.315957 3.159019 C 84.680754 2.456119 87.14363 2.101944 89.715482 2.101944 Z M 116.659997 15.141019 C 122.294098 15.141019 126.440665 16.285275 129.110597 18.568339 C 131.791426 20.840506 133.126392 23.821021 133.126392 27.498988 C 133.126392 28.741324 132.962927 30.130778 132.630547 31.667351 C 131.840466 35.067427 130.369279 38.037045 128.216987 40.587102 C 126.064695 43.120813 123.422008 45.087844 120.299822 46.482747 C 117.177637 47.866753 113.788458 48.558756 110.143184 48.558756 C 104.389209 48.558756 100.133665 47.414499 97.371103 45.120537 C 94.624887 42.815678 93.246331 39.75343 93.246331 35.944691 C 93.246331 34.658764 93.415245 33.236617 93.747624 31.667351 C 94.537706 28.436189 96.041586 25.570099 98.253815 23.069081 C 100.466044 20.562615 103.174118 18.617379 106.378036 17.233374 C 109.592851 15.83847 113.020172 15.141019 116.659997 15.141019 Z M 116.480185 20.67704 C 115.608371 20.67704 114.687517 21.456225 113.706726 23.009144 C 112.731383 24.556615 111.587127 27.482642 110.263059 31.792674 C 108.93899 36.097258 108.274232 39.121364 108.274232 40.859544 C 108.274232 41.769501 108.421351 42.379771 108.715588 42.690355 C 109.009825 43.006387 109.402142 43.164404 109.897986 43.164404 C 110.769801 43.246136 111.668859 42.494196 112.595162 40.919482 C 113.526914 39.339318 114.692966 36.27707 116.098766 31.727288 C 117.384693 27.716942 118.027656 24.796364 118.027656 22.965553 C 118.027656 22.093739 117.891435 21.499815 117.618993 21.178334 C 117.352 20.840506 116.97603 20.67704 116.480185 20.67704 Z M 161.13343 15.941998 C 161.923512 15.941998 162.533782 16.110912 162.969689 16.443292 C 163.405597 16.775671 163.62355 17.233374 163.62355 17.810951 C 163.62355 17.979865 163.57996 18.274102 163.498227 18.688214 C 162.953343 20.508126 161.711007 21.418083 159.77122 21.418083 L 156.164088 21.418083 L 151.50533 36.762017 C 151.303723 37.377736 151.205644 38.020699 151.205644 38.690906 C 151.205644 39.426499 151.407251 39.944139 151.810465 40.238377 C 152.224577 40.527165 152.807603 40.674284 153.554094 40.674284 C 154.218852 40.674284 155.047076 40.592551 156.038765 40.418188 C 156.534609 40.298314 156.970516 40.238377 157.346486 40.238377 C 157.635275 40.238377 157.853229 40.331007 157.994898 40.521716 C 158.136568 40.706977 158.207403 40.941277 158.207403 41.235514 C 158.250994 42.058289 157.635275 43.055427 156.376593 44.237825 C 155.117911 45.420224 153.417873 46.439157 151.265581 47.289176 C 149.113289 48.139195 146.732146 48.558756 144.122151 48.558756 C 141.299652 48.558756 139.043832 47.921241 137.343794 46.635315 C 135.643756 45.349389 134.793737 43.594862 134.793737 41.360838 C 134.793737 40.31466 134.962651 39.322972 135.29503 38.369424 L 139.267235 26.071392 C 139.47974 25.368492 139.588716 24.807261 139.588716 24.404047 C 139.588716 23.575823 139.392558 22.872923 138.994793 22.295346 C 138.602476 21.71232 138.052143 21.107499 137.343794 20.475433 C 136.728075 19.903305 136.292168 19.418358 136.041521 19.020593 C 135.796324 18.628277 135.736386 18.165125 135.856261 17.62569 C 136.019726 17.091704 136.368452 16.677592 136.902438 16.383354 C 137.447322 16.089117 138.297341 15.941998 139.452495 15.941998 L 142.939753 15.941998 L 146.85202 12.029731 C 148.21423 10.667521 149.462015 9.719423 150.595373 9.179988 C 151.73963 8.646001 153.227163 8.379008 155.052525 8.379008 C 157.662519 8.379008 158.964792 9.370697 158.964792 11.348626 C 158.964792 11.975243 158.883059 12.558269 158.708696 13.092255 L 157.842331 15.941998 Z M 182.247686 15.141019 C 187.009972 15.141019 190.818712 16.018282 193.679353 17.778258 C 196.539994 19.538233 197.973039 22.224511 197.973039 25.831643 C 197.973039 27.193853 197.716943 28.746773 197.21565 30.484953 L 194.665593 39.055978 C 194.627451 39.224892 194.605655 39.431948 194.605655 39.677146 C 194.605655 40.341905 194.878097 40.674284 195.422981 40.674284 C 195.918826 40.674284 196.338387 40.45633 196.681664 40.025872 C 197.035838 39.589965 197.281036 39.372011 197.411808 39.372011 C 197.613415 39.372011 197.782329 39.51913 197.923999 39.813367 C 198.076567 40.096707 198.15285 40.423637 198.15285 40.799607 C 198.196441 41.911171 197.771432 43.044529 196.877822 44.210581 C 195.989661 45.371184 194.796365 46.324731 193.303383 47.076671 C 191.815849 47.812264 190.181197 48.182786 188.404875 48.182786 C 186.252583 48.182786 184.405427 47.790469 182.868854 47.016734 C 181.343178 46.226652 180.286103 45.0606 179.697629 43.524027 C 178.455293 45.022458 176.984106 46.177612 175.289517 46.984041 C 173.600377 47.78502 171.780464 48.182786 169.829779 48.182786 C 167.633897 48.182786 165.792189 47.757776 164.293758 46.907757 C 162.806224 46.057738 161.70011 44.962521 160.969965 43.616658 C 160.256167 42.270794 159.896544 40.859544 159.896544 39.372011 C 159.896544 38.707253 159.956481 38.064289 160.076355 37.44857 C 160.746563 34.587929 162.185056 32.430189 164.397286 30.986246 C 166.614964 29.531406 169.252202 28.801261 172.31445 28.801261 C 175.752668 28.801261 179.130949 29.346145 182.443844 30.425016 L 183.991315 26.31659 C 184.525301 24.57841 184.792294 23.232547 184.792294 22.284448 C 184.754152 21.292759 184.421773 20.546268 183.795157 20.055873 C 183.179438 19.560028 182.225891 19.309382 180.945413 19.309382 C 181.19606 19.968691 181.321383 20.649796 181.321383 21.358146 C 181.321383 22.883821 180.738357 24.207889 179.577754 25.33035 C 178.417151 26.452811 176.755255 27.014042 174.602963 27.014042 C 172.581443 27.014042 171.00128 26.567237 169.857023 25.679076 C 168.718216 24.780017 168.146088 23.668454 168.146088 22.344386 C 168.146088 20.279275 169.301242 18.568339 171.616999 17.20068 C 173.943654 15.827573 177.4854 15.141019 182.247686 15.141019 Z M 178.776775 33.955864 C 177.610723 33.955864 176.668074 34.402669 175.937929 35.29083 C 175.218682 36.18444 174.864508 37.148884 174.864508 38.189613 C 174.864508 38.848922 175.011626 39.382909 175.316761 39.797021 C 175.632794 40.211132 176.079599 40.418188 176.668074 40.418188 C 177.20206 40.418188 177.790535 40.200235 178.428049 39.764328 C 179.071012 39.333869 179.545061 38.680008 179.83385 37.808194 L 181.141571 34.157471 C 180.433222 34.026699 179.64314 33.955864 178.776775 33.955864 Z M 223.925864 6.253961 C 226.241621 6.253961 228.383016 6.5373 230.344598 7.10398 C 232.311629 7.659761 234.316802 8.537025 236.34922 9.741218 L 237.771367 8.55882 C 238.773954 7.768738 239.59128 7.234752 240.228794 6.951412 C 240.877206 6.657175 241.612799 6.510056 242.441023 6.510056 C 243.432712 6.510056 244.217345 6.72801 244.794922 7.163917 C 245.36705 7.599824 245.655839 8.23189 245.655839 9.060113 C 245.655839 9.392493 245.595902 9.741218 245.476027 10.106291 L 242.866033 18.688214 C 242.582693 19.679903 242.22307 20.382803 241.776265 20.796915 C 241.340357 21.211027 240.686497 21.418083 239.820131 21.418083 C 238.910175 21.418083 238.109195 21.140192 237.422641 20.58441 C 236.746985 20.017731 235.684461 18.868026 234.240519 17.124397 C 232.785678 15.467949 231.467059 14.301898 230.279212 13.626241 C 229.107711 12.934239 227.903518 12.590962 226.655733 12.590962 C 225.745777 12.590962 224.97749 12.896097 224.350874 13.500918 C 223.735155 14.10029 223.43002 14.830435 223.43002 15.702249 C 223.43002 16.693938 223.925864 17.614792 224.912104 18.459363 C 225.914691 19.309382 227.473059 20.377354 229.58176 21.663281 C 231.739501 22.943758 233.515823 24.10981 234.921624 25.150538 C 236.327425 26.180369 237.526169 27.460846 238.517858 28.997419 C 239.514996 30.528543 240.016289 32.28307 240.016289 34.277346 C 240.016289 35.563272 239.809233 36.843749 239.395122 38.129676 C 238.392535 41.431673 236.463646 43.943588 233.603004 45.665421 C 230.753261 47.381806 227.418571 48.242723 223.609832 48.242723 C 220.760088 48.242723 218.35715 47.915792 216.406465 47.256483 C 214.466678 46.591724 212.477851 45.474712 210.445434 43.905446 L 208.216858 45.768949 C 207.17613 46.640764 206.320662 47.229239 205.655903 47.545271 C 204.996594 47.850406 204.255551 47.997525 203.427328 47.997525 C 202.479229 47.997525 201.716392 47.774123 201.155161 47.31642 C 200.593931 46.864166 200.31604 46.242999 200.31604 45.452917 C 200.31604 45.038805 200.403221 44.602898 200.577584 44.150644 L 203.623486 34.898513 C 203.944967 33.819643 204.397221 33.051356 204.974798 32.593654 C 205.557824 32.1414 206.309764 31.912549 207.21972 31.912549 C 208.167819 31.912549 209.028735 32.244928 209.797022 32.909687 C 210.565308 33.568996 211.567895 34.767741 212.815679 36.505921 C 214.139747 38.418464 215.365736 39.747981 216.499095 40.494472 C 217.637903 41.230066 219.000113 41.600587 220.574828 41.600587 C 221.686391 41.600587 222.541859 41.426224 223.141231 41.072049 C 223.746053 40.717875 224.176511 40.151195 224.427158 39.372011 C 224.50889 39.159506 224.552481 38.848922 224.552481 38.429362 C 224.552481 37.443122 224.067534 36.533165 223.108538 35.704942 C 222.16044 34.871269 220.694702 33.87958 218.711324 32.713528 C 216.597174 31.433051 214.88079 30.283346 213.556721 29.27531 C 212.232653 28.261826 211.077499 26.992246 210.096708 25.466571 C 209.126814 23.929998 208.641868 22.126432 208.641868 20.055873 C 208.641868 18.595584 208.870719 17.167987 209.322973 15.762187 C 210.194787 12.912443 211.976558 10.618482 214.662836 8.880302 C 217.360012 7.131224 220.449504 6.253961 223.925864 6.253961 Z M 266.03995 14.835884 C 268.568212 14.835884 270.780441 15.200956 272.682086 15.931101 C 274.58918 16.644899 276.071265 17.636588 277.122891 18.900719 C 278.174517 20.16485 278.703054 21.565201 278.703054 23.101774 C 278.703054 24.747324 278.130926 26.114983 276.98667 27.193853 C 275.853311 28.267275 274.316738 28.801261 272.376951 28.801261 C 270.388124 28.801261 268.829756 28.299968 267.707295 27.286484 C 266.595732 26.272999 266.03995 24.899892 266.03995 23.161712 C 266.03995 22.333488 266.159824 21.461673 266.405022 20.551717 C 264.666842 21.00942 263.12482 21.908478 261.778957 23.254342 C 260.433093 24.600205 259.534035 26.36563 259.081781 28.561512 C 258.836583 29.803848 258.716709 30.92086 258.716709 31.912549 C 258.716709 34.146573 259.332428 35.841163 260.563866 37.007214 C 261.806201 38.167817 263.593421 38.750843 265.920075 38.750843 C 267.244144 38.750843 268.377502 38.614622 269.331049 38.34218 C 270.279148 38.069738 271.249041 37.704666 272.24073 37.246963 C 273.068954 36.832852 273.673775 36.625796 274.044296 36.625796 C 274.300392 36.625796 274.463857 36.680284 274.545589 36.79471 C 274.627322 36.892789 274.665464 37.110742 274.665464 37.44857 C 274.709055 38.974246 274.076989 40.576205 272.769267 42.254448 C 271.466995 43.93269 269.668877 45.34394 267.374916 46.482747 C 265.080954 47.616106 262.503653 48.182786 259.637563 48.182786 C 256.657047 48.182786 254.01436 47.637902 251.7095 46.542685 C 249.415539 45.442019 247.633768 43.872753 246.369637 41.829438 C 245.116404 39.775225 244.489787 37.377736 244.489787 34.642418 C 244.489787 33.356492 244.653252 31.934344 244.974734 30.365078 C 246.097195 25.226822 248.576417 21.358146 252.406952 18.748151 C 256.237486 16.143605 260.781819 14.835884 266.03995 14.835884 Z M 301.190418 15.141019 C 306.81907 15.141019 310.971086 16.285275 313.635569 18.568339 C 316.316398 20.840506 317.656813 23.821021 317.656813 27.498988 C 317.656813 28.741324 317.487899 30.130778 317.155519 31.667351 C 316.365438 35.067427 314.894251 38.037045 312.741959 40.587102 C 310.589667 43.120813 307.952428 45.087844 304.830243 46.482747 C 301.702609 47.866753 298.318879 48.558756 294.668156 48.558756 C 288.914181 48.558756 284.658637 47.414499 281.901524 45.120537 C 279.149859 42.815678 277.776752 39.75343 277.776752 35.944691 C 277.776752 34.658764 277.940217 33.236617 278.278045 31.667351 C 279.062678 28.436189 280.566558 25.570099 282.778787 23.069081 C 284.996465 20.562615 287.704538 18.617379 290.908456 17.233374 C 294.123272 15.83847 297.550593 15.141019 301.190418 15.141019 Z M 301.005157 20.67704 C 300.138792 20.67704 299.212489 21.456225 298.231698 23.009144 C 297.261804 24.556615 296.112099 27.482642 294.788031 31.792674 C 293.463962 36.097258 292.804653 39.121364 292.804653 40.859544 C 292.804653 41.769501 292.951771 42.379771 293.24056 42.690355 C 293.534797 43.006387 293.932563 43.164404 294.422958 43.164404 C 295.294773 43.246136 296.193831 42.494196 297.125583 40.919482 C 298.057335 39.339318 299.223386 36.27707 300.629187 31.727288 C 301.909665 27.716942 302.552628 24.796364 302.552628 22.965553 C 302.552628 22.093739 302.416407 21.499815 302.143965 21.178334 C 301.88242 20.840506 301.501002 20.67704 301.005157 20.67704 Z M 348.39372 15.141019 C 350.714926 15.141019 352.57298 15.849368 353.956986 17.266067 C 355.340991 18.666418 356.032994 20.410047 356.032994 22.480607 C 356.032994 23.259791 355.951261 23.979038 355.793245 24.649245 C 355.379133 26.343834 354.589051 27.651556 353.428448 28.561512 C 352.262397 29.471469 350.872942 29.923722 349.254637 29.923722 C 347.69082 29.923722 346.502973 29.55865 345.691095 28.817608 C 344.884667 28.071117 344.170869 27.073979 343.55515 25.831643 C 343.222771 25.123294 342.906738 24.605654 342.612501 24.284173 C 342.329161 23.951793 342.002231 23.782879 341.631709 23.782879 C 341.212149 23.782879 340.852525 23.951793 340.536493 24.284173 C 340.225909 24.605654 339.948018 25.183231 339.70282 26.011455 L 334.913289 41.540649 C 334.831557 41.742257 334.787966 42.05284 334.787966 42.466952 C 334.787966 43.011836 334.945983 43.458641 335.262015 43.812816 C 335.572599 44.156093 335.997609 44.49937 336.531595 44.831749 C 337.027439 45.164128 337.359819 45.43657 337.517835 45.649075 C 337.692198 45.850682 337.757584 46.117675 337.719442 46.455503 C 337.626812 46.98949 337.321677 47.381806 336.809486 47.637902 C 336.291846 47.877651 335.414583 47.997525 334.166798 47.997525 L 318.27798 47.997525 C 317.193661 47.997525 316.419926 47.823162 315.940428 47.468988 C 315.466379 47.114813 315.292016 46.651662 315.411891 46.074084 C 315.580805 45.57824 316.016712 45.142333 316.714163 44.771812 C 317.34078 44.433984 317.863869 44.041667 318.27798 43.589413 C 318.692092 43.131711 319.040818 42.407015 319.324158 41.420775 L 324.860179 23.466847 C 324.936463 23.26524 324.980054 22.976451 324.980054 22.600481 C 324.980054 22.148227 324.881975 21.799502 324.691265 21.554304 C 324.511454 21.303657 324.211767 20.987624 323.797656 20.617103 C 323.383544 20.279275 323.089306 19.990487 322.914943 19.750738 C 322.756927 19.500091 322.740581 19.162263 322.871353 18.748151 C 323.116551 17.800053 324.413374 16.960932 326.767273 16.230787 C 329.13207 15.506091 331.600395 15.141019 334.166798 15.141019 C 335.866837 15.141019 337.272637 15.522438 338.384201 16.290724 C 339.506662 17.059011 340.236806 18.148779 340.569186 19.554579 C 342.558012 16.612206 345.168007 15.141019 348.39372 15.141019 Z M 374.924123 14.835884 C 380.176805 14.835884 383.985544 15.675005 386.339443 17.353248 C 388.70424 19.031491 389.886638 21.178334 389.886638 23.782879 C 389.886638 24.562064 389.804905 25.286759 389.630542 25.951518 C 389.014823 28.681387 387.287541 30.63752 384.443247 31.819919 C 381.615298 33.002317 378.275159 33.596241 374.422829 33.596241 C 372.472145 33.596241 370.646783 33.470917 368.946745 33.214822 C 368.908603 35.367114 369.48618 36.881891 370.690374 37.748257 C 371.894568 38.620071 373.57281 39.055978 375.725102 39.055978 C 376.716791 39.055978 377.664889 38.941553 378.574846 38.71815 C 379.484802 38.489299 380.650854 38.146022 382.062103 37.688319 C 383.217257 37.274208 384.00189 37.067152 384.416002 37.067152 C 384.868256 37.067152 385.097107 37.334145 385.097107 37.868131 C 385.135249 39.32842 384.595814 40.854096 383.473353 42.450606 C 382.36179 44.036218 380.710791 45.392979 378.514908 46.515441 C 376.324475 47.627004 373.67089 48.182786 370.570499 48.182786 C 365.971678 48.182786 362.201081 47.022183 359.258707 44.711874 C 356.327231 42.396117 354.861493 39.017836 354.861493 34.582481 C 354.861493 33.334696 355.01951 31.890754 355.34644 30.245204 C 356.387169 25.150538 358.653886 21.309106 362.152041 18.720907 C 365.650197 16.132708 369.905741 14.835884 374.924123 14.835884 Z M 369.388101 29.487815 C 369.546118 29.525957 369.774969 29.547752 370.069206 29.547752 C 371.807386 29.547752 373.131454 28.741324 374.041411 27.133916 C 374.951367 25.515611 375.387274 23.712044 375.343683 21.723218 C 375.305542 20.568064 374.978611 19.990487 374.362892 19.990487 C 373.90519 19.990487 373.365754 20.355559 372.739138 21.085704 C 372.123419 21.80495 371.5077 22.88927 370.902879 24.34411 C 370.308955 25.788053 369.802213 27.504437 369.388101 29.487815 Z M 369.388101 29.487815 " stroke="#1d794c" stroke-width="12.344978" stroke-opacity="1" stroke-miterlimit="4"/><g fill="#ffeedc" fill-opacity="1"><g transform="translate(49.43468, 50.404118)"><g><path d="M 24 -29.65625 C 27.144531 -29.65625 29.570312 -28.972656 31.28125 -27.609375 C 32.988281 -26.242188 33.84375 -24.429688 33.84375 -22.171875 C 33.84375 -21.285156 33.707031 -20.351562 33.4375 -19.375 C 32.613281 -16.40625 30.972656 -14.207031 28.515625 -12.78125 C 26.066406 -11.351562 22.972656 -10.640625 19.234375 -10.640625 L 14.65625 -10.640625 L 13.140625 -5.25 C 13.078125 -5.070312 13.046875 -4.835938 13.046875 -4.546875 C 13.046875 -4.128906 13.140625 -3.785156 13.328125 -3.515625 C 13.523438 -3.253906 13.816406 -2.941406 14.203125 -2.578125 C 14.535156 -2.285156 14.757812 -2.0625 14.875 -1.90625 C 14.988281 -1.757812 15.046875 -1.582031 15.046875 -1.375 C 15.046875 -0.875 14.804688 -0.519531 14.328125 -0.3125 C 13.859375 -0.101562 13.164062 0 12.25 0 L 1.0625 0 C 0.289062 0 -0.285156 -0.140625 -0.671875 -0.421875 C -1.054688 -0.703125 -1.1875 -1.097656 -1.0625 -1.609375 C -1.007812 -1.867188 -0.898438 -2.082031 -0.734375 -2.25 C -0.566406 -2.414062 -0.320312 -2.601562 0 -2.8125 C 0.5 -3.101562 0.894531 -3.410156 1.1875 -3.734375 C 1.488281 -4.066406 1.734375 -4.570312 1.921875 -5.25 L 7.34375 -24.453125 C 7.46875 -24.835938 7.53125 -25.207031 7.53125 -25.5625 C 7.53125 -25.882812 7.476562 -26.15625 7.375 -26.375 C 7.269531 -26.601562 7.128906 -26.867188 6.953125 -27.171875 C 6.679688 -27.554688 6.546875 -27.863281 6.546875 -28.09375 C 6.546875 -28.1875 6.578125 -28.351562 6.640625 -28.59375 C 6.753906 -28.976562 7.007812 -29.25 7.40625 -29.40625 C 7.8125 -29.570312 8.429688 -29.65625 9.265625 -29.65625 Z M 22.84375 -20.171875 C 23.164062 -21.273438 23.328125 -22.238281 23.328125 -23.0625 C 23.328125 -24.789062 22.53125 -25.65625 20.9375 -25.65625 L 18.921875 -25.65625 L 15.765625 -14.65625 L 17.71875 -14.65625 C 18.96875 -14.65625 19.984375 -15.046875 20.765625 -15.828125 C 21.554688 -16.617188 22.25 -18.066406 22.84375 -20.171875 Z M 22.84375 -20.171875 "/></g></g></g><g fill="#ffeedc" fill-opacity="1"><g transform="translate(80.736471, 50.404118)"><g><path d="M 11.71875 -23.5625 C 13.4375 -23.5625 14.695312 -23.234375 15.5 -22.578125 C 16.300781 -21.921875 16.703125 -21.03125 16.703125 -19.90625 C 16.703125 -19.21875 16.597656 -18.566406 16.390625 -17.953125 L 12.296875 -4.625 C 12.210938 -4.269531 12.171875 -3.960938 12.171875 -3.703125 C 12.171875 -3.316406 12.242188 -3.007812 12.390625 -2.78125 C 12.535156 -2.5625 12.742188 -2.347656 13.015625 -2.140625 C 13.222656 -1.929688 13.367188 -1.757812 13.453125 -1.625 C 13.546875 -1.488281 13.5625 -1.316406 13.5 -1.109375 C 13.351562 -0.722656 13.054688 -0.441406 12.609375 -0.265625 C 12.160156 -0.0859375 11.476562 0 10.5625 0 L 0.40625 0 C -0.363281 0 -0.925781 -0.125 -1.28125 -0.375 C -1.632812 -0.625 -1.753906 -0.957031 -1.640625 -1.375 C -1.523438 -1.738281 -1.210938 -2.050781 -0.703125 -2.3125 C -0.253906 -2.550781 0.113281 -2.832031 0.40625 -3.15625 C 0.707031 -3.488281 0.960938 -4.007812 1.171875 -4.71875 L 5.046875 -17.59375 C 5.128906 -17.851562 5.171875 -18.078125 5.171875 -18.265625 C 5.171875 -18.585938 5.097656 -18.84375 4.953125 -19.03125 C 4.804688 -19.226562 4.582031 -19.429688 4.28125 -19.640625 C 3.988281 -19.878906 3.78125 -20.085938 3.65625 -20.265625 C 3.539062 -20.441406 3.523438 -20.675781 3.609375 -20.96875 C 3.785156 -21.65625 4.71875 -22.257812 6.40625 -22.78125 C 8.101562 -23.300781 9.875 -23.5625 11.71875 -23.5625 Z M 14.703125 -33.40625 C 15.859375 -33.40625 16.820312 -33.023438 17.59375 -32.265625 C 18.375 -31.503906 18.765625 -30.578125 18.765625 -29.484375 C 18.765625 -28.710938 18.5625 -27.953125 18.15625 -27.203125 C 17.757812 -26.460938 17.195312 -25.863281 16.46875 -25.40625 C 15.738281 -24.945312 14.929688 -24.71875 14.046875 -24.71875 C 12.910156 -24.71875 11.960938 -25.09375 11.203125 -25.84375 C 10.453125 -26.601562 10.0625 -27.546875 10.03125 -28.671875 C 10.03125 -29.421875 10.222656 -30.15625 10.609375 -30.875 C 10.992188 -31.601562 11.539062 -32.207031 12.25 -32.6875 C 12.96875 -33.164062 13.785156 -33.40625 14.703125 -33.40625 Z M 14.703125 -33.40625 "/></g></g></g><g fill="#ffeedc" fill-opacity="1"><g transform="translate(97.032994, 50.404118)"><g><path d="M 14.203125 -32.90625 C 15.921875 -32.90625 17.1875 -32.578125 18 -31.921875 C 18.820312 -31.273438 19.234375 -30.382812 19.234375 -29.25 C 19.234375 -28.601562 19.128906 -27.96875 18.921875 -27.34375 L 11.9375 -4.625 C 11.84375 -4.269531 11.796875 -3.960938 11.796875 -3.703125 C 11.796875 -3.316406 11.867188 -3.007812 12.015625 -2.78125 C 12.171875 -2.5625 12.378906 -2.347656 12.640625 -2.140625 C 12.847656 -1.929688 12.992188 -1.757812 13.078125 -1.625 C 13.171875 -1.488281 13.191406 -1.316406 13.140625 -1.109375 C 12.992188 -0.722656 12.695312 -0.441406 12.25 -0.265625 C 11.800781 -0.0859375 11.117188 0 10.203125 0 L 0.046875 0 C -0.722656 0 -1.285156 -0.125 -1.640625 -0.375 C -2.003906 -0.625 -2.125 -0.957031 -2 -1.375 C -1.882812 -1.738281 -1.570312 -2.050781 -1.0625 -2.3125 C -0.625 -2.550781 -0.257812 -2.832031 0.03125 -3.15625 C 0.332031 -3.488281 0.585938 -4.007812 0.796875 -4.71875 L 7.578125 -26.9375 C 7.660156 -27.207031 7.703125 -27.429688 7.703125 -27.609375 C 7.703125 -27.929688 7.617188 -28.195312 7.453125 -28.40625 C 7.296875 -28.613281 7.082031 -28.820312 6.8125 -29.03125 C 6.519531 -29.269531 6.304688 -29.476562 6.171875 -29.65625 C 6.035156 -29.832031 6.007812 -30.070312 6.09375 -30.375 C 6.28125 -31.050781 7.21875 -31.640625 8.90625 -32.140625 C 10.59375 -32.648438 12.359375 -32.90625 14.203125 -32.90625 Z M 14.203125 -32.90625 "/></g></g></g><g fill="#ffeedc" fill-opacity="1"><g transform="translate(113.329518, 50.404118)"><g><path d="M 17.234375 -23.5625 C 21.273438 -23.5625 24.25 -22.742188 26.15625 -21.109375 C 28.070312 -19.472656 29.03125 -17.335938 29.03125 -14.703125 C 29.03125 -13.804688 28.910156 -12.8125 28.671875 -11.71875 C 28.109375 -9.28125 27.054688 -7.144531 25.515625 -5.3125 C 23.972656 -3.488281 22.082031 -2.078125 19.84375 -1.078125 C 17.601562 -0.0859375 15.175781 0.40625 12.5625 0.40625 C 8.4375 0.40625 5.382812 -0.414062 3.40625 -2.0625 C 1.4375 -3.71875 0.453125 -5.910156 0.453125 -8.640625 C 0.453125 -9.554688 0.566406 -10.582031 0.796875 -11.71875 C 1.359375 -14.03125 2.429688 -16.082031 4.015625 -17.875 C 5.609375 -19.675781 7.554688 -21.070312 9.859375 -22.0625 C 12.160156 -23.0625 14.617188 -23.5625 17.234375 -23.5625 Z M 17.09375 -19.59375 C 16.476562 -19.59375 15.820312 -19.035156 15.125 -17.921875 C 14.425781 -16.804688 13.597656 -14.707031 12.640625 -11.625 C 11.691406 -8.53125 11.21875 -6.363281 11.21875 -5.125 C 11.21875 -4.46875 11.320312 -4.023438 11.53125 -3.796875 C 11.738281 -3.578125 12.019531 -3.46875 12.375 -3.46875 C 13 -3.414062 13.644531 -3.953125 14.3125 -5.078125 C 14.976562 -6.203125 15.816406 -8.398438 16.828125 -11.671875 C 17.753906 -14.546875 18.21875 -16.640625 18.21875 -17.953125 C 18.21875 -18.566406 18.117188 -18.992188 17.921875 -19.234375 C 17.734375 -19.472656 17.457031 -19.59375 17.09375 -19.59375 Z M 17.09375 -19.59375 "/></g></g></g><g fill="#ffeedc" fill-opacity="1"><g transform="translate(142.538587, 50.404118)"><g><path d="M 19.90625 -22.984375 C 20.46875 -22.984375 20.90625 -22.863281 21.21875 -22.625 C 21.53125 -22.382812 21.6875 -22.054688 21.6875 -21.640625 C 21.6875 -21.523438 21.65625 -21.316406 21.59375 -21.015625 C 21.207031 -19.710938 20.316406 -19.0625 18.921875 -19.0625 L 16.34375 -19.0625 L 13 -8.0625 C 12.851562 -7.613281 12.78125 -7.15625 12.78125 -6.6875 C 12.78125 -6.144531 12.925781 -5.769531 13.21875 -5.5625 C 13.519531 -5.351562 13.9375 -5.25 14.46875 -5.25 C 14.945312 -5.25 15.539062 -5.3125 16.25 -5.4375 C 16.601562 -5.519531 16.914062 -5.5625 17.1875 -5.5625 C 17.394531 -5.5625 17.550781 -5.492188 17.65625 -5.359375 C 17.757812 -5.234375 17.8125 -5.066406 17.8125 -4.859375 C 17.84375 -4.265625 17.40625 -3.539062 16.5 -2.6875 C 15.59375 -1.84375 14.367188 -1.113281 12.828125 -0.5 C 11.285156 0.101562 9.578125 0.40625 7.703125 0.40625 C 5.679688 0.40625 4.0625 -0.0507812 2.84375 -0.96875 C 1.632812 -1.894531 1.03125 -3.160156 1.03125 -4.765625 C 1.03125 -5.503906 1.144531 -6.21875 1.375 -6.90625 L 4.234375 -15.71875 C 4.378906 -16.226562 4.453125 -16.628906 4.453125 -16.921875 C 4.453125 -17.515625 4.3125 -18.019531 4.03125 -18.4375 C 3.75 -18.851562 3.351562 -19.285156 2.84375 -19.734375 C 2.40625 -20.140625 2.09375 -20.484375 1.90625 -20.765625 C 1.726562 -21.054688 1.6875 -21.394531 1.78125 -21.78125 C 1.894531 -22.164062 2.144531 -22.460938 2.53125 -22.671875 C 2.925781 -22.878906 3.535156 -22.984375 4.359375 -22.984375 L 6.859375 -22.984375 L 9.65625 -25.78125 C 10.644531 -26.757812 11.546875 -27.441406 12.359375 -27.828125 C 13.171875 -28.210938 14.234375 -28.40625 15.546875 -28.40625 C 17.410156 -28.40625 18.34375 -27.695312 18.34375 -26.28125 C 18.34375 -25.832031 18.285156 -25.414062 18.171875 -25.03125 L 17.546875 -22.984375 Z M 19.90625 -22.984375 "/></g></g></g><g fill="#ffeedc" fill-opacity="1"><g transform="translate(161.684775, 50.404118)"><g><path d="M 15.890625 -23.5625 C 19.304688 -23.5625 22.039062 -22.925781 24.09375 -21.65625 C 26.144531 -20.394531 27.171875 -18.472656 27.171875 -15.890625 C 27.171875 -14.910156 26.988281 -13.800781 26.625 -12.5625 L 24.796875 -6.40625 C 24.773438 -6.289062 24.765625 -6.144531 24.765625 -5.96875 C 24.765625 -5.488281 24.957031 -5.25 25.34375 -5.25 C 25.695312 -5.25 26 -5.40625 26.25 -5.71875 C 26.5 -6.03125 26.671875 -6.1875 26.765625 -6.1875 C 26.910156 -6.1875 27.035156 -6.082031 27.140625 -5.875 C 27.242188 -5.664062 27.296875 -5.429688 27.296875 -5.171875 C 27.328125 -4.367188 27.019531 -3.550781 26.375 -2.71875 C 25.738281 -1.882812 24.882812 -1.195312 23.8125 -0.65625 C 22.75 -0.125 21.582031 0.140625 20.3125 0.140625 C 18.757812 0.140625 17.4375 -0.140625 16.34375 -0.703125 C 15.25 -1.273438 14.492188 -2.109375 14.078125 -3.203125 C 13.179688 -2.140625 12.125 -1.316406 10.90625 -0.734375 C 9.6875 -0.148438 8.378906 0.140625 6.984375 0.140625 C 5.410156 0.140625 4.085938 -0.160156 3.015625 -0.765625 C 1.953125 -1.378906 1.160156 -2.171875 0.640625 -3.140625 C 0.117188 -4.109375 -0.140625 -5.125 -0.140625 -6.1875 C -0.140625 -6.664062 -0.09375 -7.128906 0 -7.578125 C 0.476562 -9.617188 1.507812 -11.160156 3.09375 -12.203125 C 4.6875 -13.242188 6.578125 -13.765625 8.765625 -13.765625 C 11.234375 -13.765625 13.65625 -13.378906 16.03125 -12.609375 L 17.140625 -15.546875 C 17.523438 -16.785156 17.71875 -17.75 17.71875 -18.4375 C 17.6875 -19.144531 17.445312 -19.675781 17 -20.03125 C 16.5625 -20.394531 15.882812 -20.578125 14.96875 -20.578125 C 15.144531 -20.097656 15.234375 -19.609375 15.234375 -19.109375 C 15.234375 -18.003906 14.816406 -17.050781 13.984375 -16.25 C 13.148438 -15.445312 11.960938 -15.046875 10.421875 -15.046875 C 8.960938 -15.046875 7.828125 -15.363281 7.015625 -16 C 6.203125 -16.644531 5.796875 -17.441406 5.796875 -18.390625 C 5.796875 -19.878906 6.625 -21.113281 8.28125 -22.09375 C 9.945312 -23.070312 12.484375 -23.5625 15.890625 -23.5625 Z M 13.40625 -10.0625 C 12.570312 -10.0625 11.894531 -9.742188 11.375 -9.109375 C 10.851562 -8.472656 10.59375 -7.78125 10.59375 -7.03125 C 10.59375 -6.5625 10.703125 -6.175781 10.921875 -5.875 C 11.148438 -5.582031 11.472656 -5.4375 11.890625 -5.4375 C 12.273438 -5.4375 12.695312 -5.59375 13.15625 -5.90625 C 13.613281 -6.21875 13.945312 -6.679688 14.15625 -7.296875 L 15.09375 -9.9375 C 14.59375 -10.019531 14.03125 -10.0625 13.40625 -10.0625 Z M 13.40625 -10.0625 "/></g></g></g><g fill="#ffeedc" fill-opacity="1"><g transform="translate(190.80479, 50.404118)"><g><path d="M 16.65625 -29.921875 C 18.320312 -29.921875 19.859375 -29.71875 21.265625 -29.3125 C 22.671875 -28.914062 24.101562 -28.289062 25.5625 -27.4375 L 26.578125 -28.28125 C 27.296875 -28.84375 27.882812 -29.226562 28.34375 -29.4375 C 28.800781 -29.644531 29.328125 -29.75 29.921875 -29.75 C 30.640625 -29.75 31.203125 -29.59375 31.609375 -29.28125 C 32.023438 -28.96875 32.234375 -28.515625 32.234375 -27.921875 C 32.234375 -27.679688 32.191406 -27.429688 32.109375 -27.171875 L 30.234375 -21.015625 C 30.023438 -20.304688 29.765625 -19.800781 29.453125 -19.5 C 29.140625 -19.207031 28.675781 -19.0625 28.0625 -19.0625 C 27.40625 -19.0625 26.832031 -19.257812 26.34375 -19.65625 C 25.851562 -20.0625 25.085938 -20.882812 24.046875 -22.125 C 23.003906 -23.3125 22.0625 -24.148438 21.21875 -24.640625 C 20.375 -25.140625 19.503906 -25.390625 18.609375 -25.390625 C 17.960938 -25.390625 17.414062 -25.171875 16.96875 -24.734375 C 16.519531 -24.304688 16.296875 -23.78125 16.296875 -23.15625 C 16.296875 -22.445312 16.648438 -21.785156 17.359375 -21.171875 C 18.078125 -20.566406 19.191406 -19.800781 20.703125 -18.875 C 22.242188 -17.957031 23.519531 -17.128906 24.53125 -16.390625 C 25.539062 -15.648438 26.398438 -14.726562 27.109375 -13.625 C 27.828125 -12.53125 28.1875 -11.269531 28.1875 -9.84375 C 28.1875 -8.925781 28.039062 -8.003906 27.75 -7.078125 C 27.03125 -4.703125 25.644531 -2.898438 23.59375 -1.671875 C 21.550781 -0.441406 19.164062 0.171875 16.4375 0.171875 C 14.382812 0.171875 12.660156 -0.0625 11.265625 -0.53125 C 9.867188 -1.007812 8.441406 -1.8125 6.984375 -2.9375 L 5.390625 -1.609375 C 4.648438 -0.984375 4.039062 -0.554688 3.5625 -0.328125 C 3.082031 -0.109375 2.546875 0 1.953125 0 C 1.273438 0 0.734375 -0.160156 0.328125 -0.484375 C -0.0664062 -0.816406 -0.265625 -1.265625 -0.265625 -1.828125 C -0.265625 -2.117188 -0.207031 -2.429688 -0.09375 -2.765625 L 2.09375 -9.390625 C 2.332031 -10.160156 2.660156 -10.707031 3.078125 -11.03125 C 3.492188 -11.363281 4.023438 -11.53125 4.671875 -11.53125 C 5.359375 -11.53125 5.972656 -11.289062 6.515625 -10.8125 C 7.066406 -10.34375 7.789062 -9.484375 8.6875 -8.234375 C 9.632812 -6.867188 10.515625 -5.921875 11.328125 -5.390625 C 12.148438 -4.859375 13.125 -4.59375 14.25 -4.59375 C 15.050781 -4.59375 15.664062 -4.71875 16.09375 -4.96875 C 16.53125 -5.21875 16.835938 -5.625 17.015625 -6.1875 C 17.066406 -6.332031 17.09375 -6.554688 17.09375 -6.859375 C 17.09375 -7.566406 16.75 -8.21875 16.0625 -8.8125 C 15.382812 -9.40625 14.335938 -10.117188 12.921875 -10.953125 C 11.398438 -11.867188 10.164062 -12.691406 9.21875 -13.421875 C 8.269531 -14.148438 7.445312 -15.0625 6.75 -16.15625 C 6.050781 -17.257812 5.703125 -18.554688 5.703125 -20.046875 C 5.703125 -21.078125 5.863281 -22.097656 6.1875 -23.109375 C 6.8125 -25.160156 8.085938 -26.804688 10.015625 -28.046875 C 11.953125 -29.296875 14.164062 -29.921875 16.65625 -29.921875 Z M 16.65625 -29.921875 "/></g></g></g><g fill="#ffeedc" fill-opacity="1"><g transform="translate(221.483213, 50.404118)"><g><path d="M 16.171875 -23.78125 C 17.972656 -23.78125 19.554688 -23.519531 20.921875 -23 C 22.296875 -22.476562 23.359375 -21.765625 24.109375 -20.859375 C 24.867188 -19.953125 25.25 -18.953125 25.25 -17.859375 C 25.25 -16.671875 24.835938 -15.691406 24.015625 -14.921875 C 23.203125 -14.148438 22.097656 -13.765625 20.703125 -13.765625 C 19.273438 -13.765625 18.160156 -14.125 17.359375 -14.84375 C 16.566406 -15.570312 16.171875 -16.5625 16.171875 -17.8125 C 16.171875 -18.40625 16.257812 -19.03125 16.4375 -19.6875 C 15.1875 -19.351562 14.078125 -18.703125 13.109375 -17.734375 C 12.148438 -16.773438 11.503906 -15.507812 11.171875 -13.9375 C 10.992188 -13.050781 10.90625 -12.25 10.90625 -11.53125 C 10.90625 -9.925781 11.347656 -8.707031 12.234375 -7.875 C 13.128906 -7.050781 14.410156 -6.640625 16.078125 -6.640625 C 17.023438 -6.640625 17.835938 -6.734375 18.515625 -6.921875 C 19.203125 -7.117188 19.90625 -7.378906 20.625 -7.703125 C 21.21875 -8.003906 21.644531 -8.15625 21.90625 -8.15625 C 22.082031 -8.15625 22.203125 -8.113281 22.265625 -8.03125 C 22.328125 -7.957031 22.359375 -7.804688 22.359375 -7.578125 C 22.390625 -6.472656 21.9375 -5.316406 21 -4.109375 C 20.0625 -2.910156 18.769531 -1.898438 17.125 -1.078125 C 15.476562 -0.265625 13.628906 0.140625 11.578125 0.140625 C 9.441406 0.140625 7.546875 -0.253906 5.890625 -1.046875 C 4.242188 -1.835938 2.96875 -2.96875 2.0625 -4.4375 C 1.164062 -5.90625 0.71875 -7.617188 0.71875 -9.578125 C 0.71875 -10.492188 0.832031 -11.515625 1.0625 -12.640625 C 1.863281 -16.328125 3.640625 -19.101562 6.390625 -20.96875 C 9.140625 -22.84375 12.398438 -23.78125 16.171875 -23.78125 Z M 16.171875 -23.78125 "/></g></g></g><g fill="#ffeedc" fill-opacity="1"><g transform="translate(245.616309, 50.404118)"><g><path d="M 17.234375 -23.5625 C 21.273438 -23.5625 24.25 -22.742188 26.15625 -21.109375 C 28.070312 -19.472656 29.03125 -17.335938 29.03125 -14.703125 C 29.03125 -13.804688 28.910156 -12.8125 28.671875 -11.71875 C 28.109375 -9.28125 27.054688 -7.144531 25.515625 -5.3125 C 23.972656 -3.488281 22.082031 -2.078125 19.84375 -1.078125 C 17.601562 -0.0859375 15.175781 0.40625 12.5625 0.40625 C 8.4375 0.40625 5.382812 -0.414062 3.40625 -2.0625 C 1.4375 -3.71875 0.453125 -5.910156 0.453125 -8.640625 C 0.453125 -9.554688 0.566406 -10.582031 0.796875 -11.71875 C 1.359375 -14.03125 2.429688 -16.082031 4.015625 -17.875 C 5.609375 -19.675781 7.554688 -21.070312 9.859375 -22.0625 C 12.160156 -23.0625 14.617188 -23.5625 17.234375 -23.5625 Z M 17.09375 -19.59375 C 16.476562 -19.59375 15.820312 -19.035156 15.125 -17.921875 C 14.425781 -16.804688 13.597656 -14.707031 12.640625 -11.625 C 11.691406 -8.53125 11.21875 -6.363281 11.21875 -5.125 C 11.21875 -4.46875 11.320312 -4.023438 11.53125 -3.796875 C 11.738281 -3.578125 12.019531 -3.46875 12.375 -3.46875 C 13 -3.414062 13.644531 -3.953125 14.3125 -5.078125 C 14.976562 -6.203125 15.816406 -8.398438 16.828125 -11.671875 C 17.753906 -14.546875 18.21875 -16.640625 18.21875 -17.953125 C 18.21875 -18.566406 18.117188 -18.992188 17.921875 -19.234375 C 17.734375 -19.472656 17.457031 -19.59375 17.09375 -19.59375 Z M 17.09375 -19.59375 "/></g></g></g><g fill="#ffeedc" fill-opacity="1"><g transform="translate(274.825388, 50.404118)"><g><path d="M 21.859375 -23.5625 C 23.523438 -23.5625 24.851562 -23.054688 25.84375 -22.046875 C 26.84375 -21.035156 27.34375 -19.785156 27.34375 -18.296875 C 27.34375 -17.734375 27.285156 -17.21875 27.171875 -16.75 C 26.867188 -15.53125 26.300781 -14.59375 25.46875 -13.9375 C 24.632812 -13.28125 23.640625 -12.953125 22.484375 -12.953125 C 21.359375 -12.953125 20.503906 -13.21875 19.921875 -13.75 C 19.347656 -14.289062 18.835938 -15.003906 18.390625 -15.890625 C 18.148438 -16.398438 17.925781 -16.773438 17.71875 -17.015625 C 17.507812 -17.253906 17.273438 -17.375 17.015625 -17.375 C 16.710938 -17.375 16.445312 -17.253906 16.21875 -17.015625 C 16 -16.773438 15.800781 -16.359375 15.625 -15.765625 L 12.203125 -4.625 C 12.140625 -4.476562 12.109375 -4.257812 12.109375 -3.96875 C 12.109375 -3.582031 12.21875 -3.257812 12.4375 -3 C 12.664062 -2.75 12.972656 -2.503906 13.359375 -2.265625 C 13.710938 -2.035156 13.945312 -1.84375 14.0625 -1.6875 C 14.1875 -1.539062 14.234375 -1.347656 14.203125 -1.109375 C 14.140625 -0.722656 13.921875 -0.441406 13.546875 -0.265625 C 13.179688 -0.0859375 12.554688 0 11.671875 0 L 0.265625 0 C -0.503906 0 -1.0625 -0.125 -1.40625 -0.375 C -1.75 -0.625 -1.875 -0.957031 -1.78125 -1.375 C -1.664062 -1.738281 -1.351562 -2.050781 -0.84375 -2.3125 C -0.394531 -2.550781 -0.0234375 -2.832031 0.265625 -3.15625 C 0.566406 -3.488281 0.820312 -4.007812 1.03125 -4.71875 L 4.984375 -17.59375 C 5.046875 -17.738281 5.078125 -17.945312 5.078125 -18.21875 C 5.078125 -18.539062 5.007812 -18.789062 4.875 -18.96875 C 4.738281 -19.144531 4.523438 -19.367188 4.234375 -19.640625 C 3.929688 -19.878906 3.71875 -20.085938 3.59375 -20.265625 C 3.476562 -20.441406 3.46875 -20.675781 3.5625 -20.96875 C 3.738281 -21.65625 4.671875 -22.257812 6.359375 -22.78125 C 8.054688 -23.300781 9.828125 -23.5625 11.671875 -23.5625 C 12.890625 -23.5625 13.894531 -23.285156 14.6875 -22.734375 C 15.488281 -22.179688 16.007812 -21.398438 16.25 -20.390625 C 17.675781 -22.503906 19.546875 -23.5625 21.859375 -23.5625 Z M 21.859375 -23.5625 "/></g></g></g><g fill="#ffeedc" fill-opacity="1"><g transform="translate(300.605936, 50.404118)"><g><path d="M 15.09375 -23.78125 C 18.863281 -23.78125 21.59375 -23.175781 23.28125 -21.96875 C 24.976562 -20.769531 25.828125 -19.238281 25.828125 -17.375 C 25.828125 -16.800781 25.769531 -16.28125 25.65625 -15.8125 C 25.207031 -13.851562 23.960938 -12.445312 21.921875 -11.59375 C 19.890625 -10.75 17.492188 -10.328125 14.734375 -10.328125 C 13.335938 -10.328125 12.035156 -10.414062 10.828125 -10.59375 C 10.796875 -9.050781 11.207031 -7.96875 12.0625 -7.34375 C 12.925781 -6.71875 14.128906 -6.40625 15.671875 -6.40625 C 16.390625 -6.40625 17.070312 -6.488281 17.71875 -6.65625 C 18.375 -6.820312 19.207031 -7.066406 20.21875 -7.390625 C 21.050781 -7.691406 21.613281 -7.84375 21.90625 -7.84375 C 22.238281 -7.84375 22.40625 -7.648438 22.40625 -7.265625 C 22.425781 -6.222656 22.035156 -5.128906 21.234375 -3.984375 C 20.441406 -2.835938 19.253906 -1.863281 17.671875 -1.0625 C 16.097656 -0.257812 14.203125 0.140625 11.984375 0.140625 C 8.679688 0.140625 5.976562 -0.691406 3.875 -2.359375 C 1.769531 -4.023438 0.71875 -6.445312 0.71875 -9.625 C 0.71875 -10.507812 0.832031 -11.546875 1.0625 -12.734375 C 1.8125 -16.390625 3.4375 -19.144531 5.9375 -21 C 8.445312 -22.851562 11.5 -23.78125 15.09375 -23.78125 Z M 11.140625 -13.265625 C 11.253906 -13.234375 11.414062 -13.21875 11.625 -13.21875 C 12.875 -13.21875 13.820312 -13.796875 14.46875 -14.953125 C 15.125 -16.117188 15.4375 -17.414062 15.40625 -18.84375 C 15.375 -19.664062 15.140625 -20.078125 14.703125 -20.078125 C 14.367188 -20.078125 13.976562 -19.816406 13.53125 -19.296875 C 13.09375 -18.785156 12.65625 -18.007812 12.21875 -16.96875 C 11.789062 -15.925781 11.429688 -14.691406 11.140625 -13.265625 Z M 11.140625 -13.265625 "/></g></g></g><g fill="#ffeedc" fill-opacity="1"><g transform="translate(325.551534, 50.404118)"><g/></g></g></svg>